<svg width="165.03974609374998px" height="99.2px" xmlns="http://www.w3.org/2000/svg" viewBox="167.48012695312502 25.4 165.03974609374998 99.2" style="background: rgba(0, 0, 0, 0);" preserveAspectRatio="xMidYMid"><defs><filter id="editing-extrude-glow"><feFlood flood-color="#ffffff" result="flood-1"></feFlood><feMorphology operator="erode" radius="1" in="SourceAlpha" result="erode"></feMorphology><feComposite operator="in" in="flood-1" in2="erode" result="comp1"></feComposite><feConvolveMatrix order="0,0" divisor="1" in="comp1" result="convolve" kernelMatrix=""></feConvolveMatrix><feOffset dx="0" dy="0" in="convolve" result="extrude"></feOffset><feComposite operator="in" in="flood-1" in2="extrude" result="comp-extrude"></feComposite><feFlood flood-color="rgba(100%,100%,100%,0)" result="flood-2"></feFlood><feComposite operator="in" in="flood-2" in2="SourceAlpha" result="comp2"></feComposite><feMorphology operator="dilate" radius="1" in="comp2" result="dilate"></feMorphology><feOffset dx="0" dy="0" in="dilate" result="offset"></feOffset><feGaussianBlur in="offset" stdDeviation="5.8" result="blur"></feGaussianBlur><feComponentTransfer in="blur" result="shadow"><feFuncA type="linear" slope="0.8" intercept="-0.2"></feFuncA></feComponentTransfer><feMerge><feMergeNode in="shadow"></feMergeNode><feMergeNode in="comp-extrude"></feMergeNode><feMergeNode in="SourceGraphic"></feMergeNode></feMerge></filter></defs><g filter="url(#editing-extrude-glow)"><g transform="translate(197.1232635974884, 92.50000190734863)"><path d="M21.10-16.10L31.20-17L31.20-17Q27.60-9.10 27.60 0.05L27.60 0.05L27.60 0.05Q26.25 1 24.28 1L24.28 1L24.28 1Q22.30 1 21.05 0.08L21.05 0.08L21.05 0.08Q19.80-0.85 19.55-1.80L19.55-1.80L19.55-1.80Q18.30-0.50 16.28 0.25L16.28 0.25L16.28 0.25Q14.25 1 12.10 1L12.10 1L12.10 1Q9.95 1 8.08 0.30L8.08 0.30L8.08 0.30Q6.20-0.40 4.75-1.95L4.75-1.95L4.75-1.95Q1.55-5.35 1.55-11.80L1.55-11.80L1.55-11.80Q1.55-21.80 6.90-27.80L6.90-27.80L6.90-27.80Q12.40-34 22.15-34L22.15-34L22.15-34Q28.90-34 31.30-30.50L31.30-30.50L31.30-30.50Q32.05-29.40 32.05-28.08L32.05-28.08L32.05-28.08Q32.05-26.75 31.48-25.63L31.48-25.63L31.48-25.63Q30.90-24.50 30-23.60L30-23.60L30-23.60Q27.85-21.60 25.20-21.60L25.20-21.60L25.20-21.60Q24.15-21.60 23.15-21.95L23.15-21.95L23.15-21.95Q23.35-23.45 23.35-25.20L23.35-25.20L23.35-25.20Q23.35-26.95 23.23-27.75L23.23-27.75L23.23-27.75Q23.10-28.55 22.80-29.20L22.80-29.20L22.80-29.20Q22.15-30.55 20.73-30.55L20.73-30.55L20.73-30.55Q19.30-30.55 17.73-29.03L17.73-29.03L17.73-29.03Q16.15-27.50 14.90-25L14.90-25L14.90-25Q12.15-19.40 12.15-12.65L12.15-12.65L12.15-12.65Q12.15-9.55 13.35-7.35L13.35-7.35L13.35-7.35Q14.65-4.95 16.95-4.95L16.95-4.95L16.95-4.95Q17.75-4.95 18.48-5.35L18.48-5.35L18.48-5.35Q19.20-5.75 19.50-6.05L19.50-6.05L21.10-16.10ZM54.55-0.85L54.55-0.85L54.55-0.85Q50.10 1 44.65 1L44.65 1L44.65 1Q39.85 1 36.60-1.50L36.60-1.50L36.60-1.50Q33.05-4.15 33.05-8.85L33.05-8.85L33.05-8.85Q33.05-15.80 41.40-17.75L41.40-17.75L41.40-17.75Q40.00-21.70 40.00-24.45L40.00-24.45L40.00-24.45Q40.00-27.20 41.05-28.98L41.05-28.98L41.05-28.98Q42.10-30.75 43.90-31.90L43.90-31.90L43.90-31.90Q47.30-34 53.00-34L53.00-34L53.00-34Q56.95-34 59.45-32.50L59.45-32.50L59.45-32.50Q62.00-30.95 62.00-28.65L62.00-28.65L62.00-28.65Q62.00-26.05 60.20-24.60L60.20-24.60L60.20-24.60Q58.60-23.25 55.95-23.25L55.95-23.25L55.95-23.25Q54.40-23.25 53.90-23.40L53.90-23.40L53.90-23.40Q54.10-24.50 54.10-26.30L54.10-26.30L54.10-26.30Q54.10-28.10 53.50-29.33L53.50-29.33L53.50-29.33Q52.90-30.55 51.90-30.55L51.90-30.55L51.90-30.55Q50.05-30.55 49.35-28.93L49.35-28.93L49.35-28.93Q48.65-27.30 48.65-24.93L48.65-24.93L48.65-24.93Q48.65-22.55 49.13-20.38L49.13-20.38L49.13-20.38Q49.60-18.20 50.50-16.10L50.50-16.10L50.50-16.10Q52.40-11.75 55.45-8.80L55.45-8.80L55.45-8.80Q56.25-10.75 56.35-13.80L56.35-13.80L56.35-13.80Q56.35-16.50 54.50-18.10L54.50-18.10L54.50-18.10Q55.20-18.75 56.55-19.15L56.55-19.15L56.55-19.15Q57.90-19.55 59.10-19.55L59.10-19.55L59.10-19.55Q61.75-19.55 63.00-17.95L63.00-17.95L63.00-17.95Q64.25-16.35 64.25-13.80L64.25-13.80L64.25-13.80Q64.25-9.25 61.00-5.50L61.00-5.50L61.00-5.50Q62.25-5.15 63.40-5.15L63.40-5.15L63.40-5.15Q65.90-5.15 66.70-5.80L66.70-5.80L66.70-5.80Q67.10-4.85 67.10-3.60L67.10-3.60L67.10-3.60Q67.10-1.10 65.48-0.05L65.48-0.05L65.48-0.05Q63.85 1 60.95 1L60.95 1L60.95 1Q58.05 1 54.55-0.85ZM43.10-13.95L43.10-13.95L43.10-13.95Q42.00-12.85 42.00-10.90L42.00-10.90L42.00-10.90Q42.00-8.95 42.45-7.73L42.45-7.73L42.45-7.73Q42.90-6.50 43.60-5.60L43.60-5.60L43.60-5.60Q45.20-3.65 47.30-3.65L47.30-3.65L47.30-3.65Q49.20-3.65 50.30-4.05L50.30-4.05L50.30-4.05Q46.10-8 43.10-13.95ZM80.50 0L69.85 0L75.55-30.40L76.10-33L86.80-33L80.50 0ZM100.80-2.95L100.80-2.95L100.80-2.95Q99.45 1 94.25 1L94.25 1L94.25 1Q90.40 1 87.75-3.60L87.75-3.60L87.75-3.60Q85.05-8.20 84.55-15.70L84.55-15.70L84.55-15.70Q90.05-25.75 93.85-29.90L93.85-29.90L93.85-29.90Q97.50-33.85 101.30-33.85L101.30-33.85L101.30-33.85Q103.35-33.85 104.83-32.75L104.83-32.75L104.83-32.75Q106.30-31.65 106.65-29.90L106.65-29.90L106.65-29.90Q104.95-29.20 104.15-28.65L104.15-28.65L104.15-28.65Q102.15-27.15 99.45-23.80L99.45-23.80L94.90-18.35L94.90-18.35Q93.80-17.05 93.35-16.45L93.35-16.45L93.35-16.45Q94.10-12.25 96.35-8.10L96.35-8.10L96.35-8.10Q98.50-4.15 100.80-2.95Z" fill="#ffffff"></path></g></g><style>text {
  font-size: 64px;
  font-family: Arial Black;
  dominant-baseline: central;
  text-anchor: middle;
}</style></svg>